<svg xmlns="http://www.w3.org/2000/svg" viewBox="0 0 200 200" width="100%" height="100%">
  <defs>
    <linearGradient id="favCyanPrism" x1="0%" y1="0%" x2="100%" y2="100%">
      <stop offset="0%" stop-color="#00F2FE" />
      <stop offset="100%" stop-color="#4FACFE" />
    </linearGradient>
    <linearGradient id="favPurplePrism" x1="0%" y1="0%" x2="100%" y2="100%">
      <stop offset="0%" stop-color="#7F00FF" />
      <stop offset="100%" stop-color="#E100FF" />
    </linearGradient>
    <linearGradient id="favMagentaPrism" x1="0%" y1="0%" x2="100%" y2="100%">
      <stop offset="0%" stop-color="#F43F5E" />
      <stop offset="100%" stop-color="#D946EF" />
    </linearGradient>
  </defs>

  <rect width="200" height="200" rx="44" fill="#0F172A"/>

  <!-- Center Glass Prism K -->
  <g transform="translate(48, 15) scale(0.68)">
    <polygon points="20,10 65,30 65 170 20 190" fill="url(#favCyanPrism)" opacity="0.95" />
    <polygon points="65,30 95,10 95 190 65 170" fill="url(#favPurplePrism)" opacity="0.85" />
    <polygon points="65,95 155,25 175,45 85 115" fill="url(#favPurplePrism)" />
    <polygon points="155,25 185,5 175,45" fill="url(#favMagentaPrism)" />
    <polygon points="75,105 175,175 150,195 65,115" fill="url(#favMagentaPrism)" />
    <polygon points="175,175 195,195 150,195" fill="url(#favCyanPrism)" />
  </g>
</svg>
